<svg width="22" height="21" viewBox="0 0 22 21" fill="none" xmlns="http://www.w3.org/2000/svg">
<path id="Vector - 0" fill-rule="evenodd" clip-rule="evenodd" d="M21.425 7.62094C21.2393 7.04864 20.7296 6.64267 20.1303 6.58969L14.5625 6.10969L12.38 0.919688C12.1476 0.362832 11.6034 0.000187039 11 0.000187039C10.3966 0.000187039 9.85235 0.362832 9.62 0.919688L7.44406 6.10969L1.86969 6.5925C1.26788 6.64307 0.75509 7.04962 0.568599 7.62404C0.382108 8.19846 0.558291 8.82869 1.01562 9.22313L5.24469 12.9187L3.97719 18.4069C3.84016 18.994 4.06802 19.6062 4.55562 19.9608C5.04322 20.3155 5.69578 20.3437 6.21219 20.0325L10.9934 17.1262L15.785 20.0325C16.3014 20.3437 16.954 20.3155 17.4416 19.9608C17.9292 19.6062 18.157 18.994 18.02 18.4069L16.7534 12.9131L20.9816 9.22313C21.4389 8.8273 21.6137 8.19556 21.425 7.62094ZM19.9981 8.08969L15.77 11.7797C15.3506 12.1445 15.1674 12.7112 15.2938 13.2525L16.5641 18.75L11.7762 15.8438C11.3001 15.5538 10.7018 15.5538 10.2256 15.8438L5.44438 18.75L6.70625 13.2563C6.83263 12.715 6.64936 12.1482 6.23 11.7834L2 8.09531C1.99966 8.09251 1.99966 8.08968 2 8.08687L7.5725 7.605C8.12697 7.55613 8.60878 7.20424 8.82406 6.69094L11 1.5075L13.175 6.69094C13.3903 7.20424 13.8721 7.55613 14.4266 7.605L20 8.08687C20 8.08687 20 8.0925 20 8.09344L19.9981 8.08969Z" fill="#121417"/>
</svg>
